# xmcd
#
# Track frame offsets:
#	150
#	13000
#	29445
#	46522
#	58857
#	76407
#	88790
#	102122
#	117225
#	130182
#
# Disc length: 1971 seconds
#
# Revision: 4
# Processed by: cddbd v1.5.2PL0 Copyright (c) Steve Scherf et al.
# Submitted via: audiograbber 1.83.01
#
DISCID=7707b10a
DTITLE=Pam Tillis - Sweetheart's Dance
DYEAR=1994
DGENRE=Country
TTITLE0=Mi Vida Loca (My Crazy Life)
TTITLE1=Sweetheart's Dance
TTITLE2=Calico Plains
TTITLE3=When You Walk In The Room
TTITLE4=Spilled Perfume
TTITLE5=I Was Blown Away
TTITLE6=They Don't Break 'em Like They Used To
TTITLE7=In Between Dances
TTITLE8=Better Off Blue
TTITLE9='til All The Lonely's Gone
EXTD=
EXTT0=
EXTT1=
EXTT2=
EXTT3=
EXTT4=
EXTT5=
EXTT6=
EXTT7=
EXTT8=
EXTT9=
PLAYORDER=
